<?xml version="1.0" encoding="UTF-8"?>
<svg width="128px" height="74px" viewBox="0 0 128 74" version="1.1" xmlns="http://www.w3.org/2000/svg" xmlns:xlink="http://www.w3.org/1999/xlink">
    <!-- Generator: Sketch 55 (78076) - https://sketchapp.com -->
    <title>编组</title>
    <desc>Created with Sketch.</desc>
    <defs>
        <linearGradient x1="0%" y1="49.7968197%" x2="97.5715221%" y2="50.2432598%" id="linearGradient-1">
            <stop stop-color="#5656FB" offset="0%"></stop>
            <stop stop-color="#573DFF" offset="100%"></stop>
        </linearGradient>
        <linearGradient x1="0%" y1="43.4943621%" x2="97.5715221%" y2="57.788943%" id="linearGradient-2">
            <stop stop-color="#5656FB" offset="0%"></stop>
            <stop stop-color="#573DFF" offset="100%"></stop>
        </linearGradient>
        <linearGradient x1="100%" y1="61.5350625%" x2="4.47658054%" y2="34.9591808%" id="linearGradient-3">
            <stop stop-color="#00DDB1" offset="0%"></stop>
            <stop stop-color="#00FFB1" offset="100%"></stop>
        </linearGradient>
    </defs>
    <g id="页面1" stroke="none" stroke-width="1" fill="none" fill-rule="evenodd">
        <g id="登录" transform="translate(-656.000000, -280.000000)">
            <g id="编组" transform="translate(656.000000, 280.000000)">
                <path d="M68.3872832,64.7181664 C67.7803468,64.7181664 67.2793834,65.2037351 67.2793834,65.7920204 L67.2793834,71.320034 C67.2793834,71.9083192 67.7803468,72.3938879 68.3872832,72.3938879 L70.6127168,72.3938879 C71.2100193,72.3938879 71.7206166,71.9083192 71.7206166,71.320034 L71.7206166,65.7920204 C71.7206166,65.2037351 71.2100193,64.7181664 70.6127168,64.7181664 L68.3872832,64.7181664 Z M63.3969171,63 L75.5934489,63 C76.3641618,63 77,63.606961 77,64.3539898 L77,72.6366723 C77,73.3837012 76.3641618,74 75.5934489,74 L63.3969171,74 C62.6358382,74 62,73.3837012 62,72.6366723 L62,64.3539898 C62,63.606961 62.6358382,63 63.3969171,63 Z M119.529875,64.3903323 C118.909389,64.3903323 118.397242,64.8930514 118.397242,65.5021148 L118.397242,71.2253776 C118.397242,71.8344411 118.909389,72.3371601 119.529875,72.3371601 L121.795141,72.3371601 C122.425476,72.3371601 122.937623,71.8344411 122.937623,71.2253776 L122.937623,65.5021148 C122.937623,64.8930514 122.425476,64.3903323 121.795141,64.3903323 L119.529875,64.3903323 Z M114.398555,62.6114804 L121.834537,62.6114804 C122.543664,62.6308157 122.986868,62.0024169 122.996717,61.4803625 L122.996717,58.6090634 C122.996717,58.2803625 123.272489,58 123.617203,58 L127.379514,58 C127.724228,58 128,58.2803625 128,58.6090634 L128,64.0132931 L128,72.2984894 L128,72.5885196 C128,73.3619335 127.359816,74 126.601445,74 L114.398555,74 C113.630335,74 113,73.3619335 113,72.5885196 L113,64.0132931 C113,63.2398792 113.630335,62.6114804 114.398555,62.6114804 Z M1.37462834,74 C0.621407334,74 0,73.3723597 0,72.5902233 L0,59.4097767 C0,58.6372963 0.621407334,58 1.37462834,58 L3.728444,58 C4.5099108,58 5.1407334,58.6372963 5.15956392,59.4290887 L5.15956392,69.3844297 C5.15956392,70.5431503 6.08225966,71.5377188 7.18384539,71.5956548 C8.72794846,71.6922148 10.2814668,71.6922148 11.8255699,71.5956548 C12.9271556,71.5377188 13.8310208,70.5334943 13.8498513,69.3844297 C13.9157582,66.062764 13.8498513,62.7314424 13.8498513,59.4097767 C13.8780971,58.6276403 14.4995045,58 15.2621407,58 L17.6347869,58 C18.3880079,58 19,58.6372963 19,59.4097767 L19,72.5902233 C19,73.3723597 18.3880079,74 17.6347869,74 L1.37462834,74 Z M38.9964476,58 L41.5168739,58 C42.0541741,58 42.5035524,58.4452511 42.5035524,58.9872958 L42.5035524,60.2940109 C42.5035524,60.8360557 42.0541741,61.2813067 41.5168739,61.2813067 L38.9964476,61.2813067 C38.4493783,61.2813067 38,60.8360557 38,60.2940109 L38,58.9872958 C38,58.4452511 38.4493783,58 38.9964476,58 Z M38.5568384,62.6073805 L41.946714,62.6073805 C42.249556,62.6073805 42.5035524,62.8493648 42.5035524,63.1591047 L42.5035524,71.07683 C42.5035524,71.5414398 42.874778,71.8705384 43.3046181,71.8802178 L47.5639432,71.8802178 L51.2273535,71.8802178 L51.2371226,71.8802178 L51.2761989,71.8802178 L52.3996448,71.8802178 L53.5230906,71.8802178 C54.3143872,71.8802178 54.6563055,71.6479129 54.6563055,71.0381125 L54.6563055,70.4573503 L54.6563055,70.3799153 C54.6367673,69.8572293 54.4609236,69.6442831 53.9626998,69.5765275 L46.6456483,69.5765275 C45.6101243,69.4603751 44.7992895,68.5795523 44.7992895,67.5148215 L44.8090586,67.4567453 L44.7992895,67.4567453 L44.7992895,67.0986086 L44.7992895,64.0592861 C44.7992895,63.2849365 45.4342806,62.646098 46.2158082,62.646098 L53.5133215,62.646098 L53.5230906,62.646098 L55.7992895,62.646098 L59.5115453,62.646098 C59.7557726,62.646098 59.9609236,62.8493648 59.9609236,63.0913491 L59.9609236,64.3399879 C59.9609236,64.5819722 59.7557726,64.785239 59.5115453,64.785239 L57.2255773,64.785239 L53.5230906,64.785239 L53.5133215,64.785239 L52.3996448,64.785239 L51.2761989,64.785239 C50.4751332,64.785239 50.1527531,65.0078645 50.1527531,65.6176649 L50.1527531,66.2081065 L50.1527531,66.2758621 C50.1625222,66.7985481 50.3285968,67.0114943 50.8365897,67.0792498 L58.1438721,67.0792498 C59.1793961,67.2050817 59.9804618,68.076225 59.9804618,69.1409558 L59.9804618,69.1990321 L60,69.1990321 L60,69.5474894 L60,69.5765275 L60,72.5964912 C60,73.3708409 59.3552398,74 58.5737123,74 L51.2371226,74 L51.2273535,74 L48.9902309,74 L41.2824156,74 L41.2628774,74 L38.5568384,74 C38.2539964,74 38,73.7580157 38,73.4579552 L38,63.1591047 C38,62.8493648 38.2539964,62.6073805 38.5568384,62.6073805 Z M109.592545,63 C110.373393,63 111,63.6162988 111,64.3633277 L111,72.9821732 C111,73.7198642 110.720437,74 109.949229,74 L106.825835,74 C106.035347,74 105.746144,73.7198642 105.726864,72.9634975 L105.726864,66.3709677 L105.726864,66.1842105 C105.726864,65.0730051 105.476221,64.7275042 104.357969,64.7275042 L102.642031,64.7275042 C101.523779,64.7275042 101.273136,65.0730051 101.273136,66.1842105 L101.273136,66.2962649 L101.273136,72.9821732 C101.244216,73.7385399 100.964653,74 100.174165,74 L97.0507712,74 C96.279563,74 96,73.729202 96,72.9821732 L96,64.3633277 C96,63.6162988 96.6266067,63 97.3978149,63 L109.592545,63 Z M92.5934489,74 L80.4065511,74 C79.6358382,74 79,73.393039 79,72.6366723 L79,64.0271647 C79,63.2801358 79.2890173,63 80.0597303,63 L83.1811175,63 C83.9614644,63 84.2504817,63.270798 84.2793834,64.0271647 L84.2793834,70.713073 L84.2793834,70.8344652 C84.2793834,71.9269949 84.5298651,72.2724958 85.6473988,72.2724958 L87.3526012,72.2724958 C88.4797688,72.2724958 88.7206166,71.9269949 88.7206166,70.8344652 L88.7206166,70.6290323 L88.7206166,64.0458404 L88.7302505,64.0458404 C88.7495183,63.2801358 89.0385356,63 89.8285164,63 L92.9499037,63 C93.7206166,63 94,63.2801358 94,64.0271647 L94,72.6366723 C94,73.393039 93.3641618,74 92.5934489,74 Z M34.5934489,63 C35.3641618,63 36,63.6162988 36,64.3633277 L36,72.9821732 C36,73.7198642 35.7109827,74 34.9402697,74 L31.8285164,74 C31.0289017,74 30.7398844,73.7198642 30.7206166,72.9541596 L30.7206166,66.3709677 L30.7206166,66.1748727 C30.7206166,65.0730051 30.4797688,64.7275042 29.3526012,64.7275042 L27.6377649,64.7275042 C26.5202312,64.7275042 26.2793834,65.0730051 26.2793834,66.1748727 L26.2793834,66.2962649 L26.2793834,72.9821732 C26.2504817,73.7385399 25.9614644,74 25.1714836,74 L22.0500963,74 C21.2793834,74 21,73.7198642 21,72.9821732 L21,64.3633277 C21,63.6162988 21.6358382,63 22.4065511,63 L34.5934489,63 Z" id="形状结合" fill="url(#linearGradient-1)"></path>
                <g id="编组-2" transform="translate(43.000000, 0.000000)">
                    <path d="M31.6788349,37.5313188 C30.0286623,38.6000129 28.2068717,39.4312193 26.2662687,39.985357 C26.1078521,40.0249383 25.9362342,39.985357 25.8306231,39.8534195 C24.5236864,38.3757191 22.6226875,37.4389626 20.4972652,37.4389626 C18.3850442,37.4389626 16.4840454,38.3757191 15.1771087,39.8534195 C15.0714976,39.985357 14.8998797,40.0249383 14.7414631,39.985357 C12.8008601,39.4312193 10.9922709,38.6000129 9.34209825,37.5313188 C9.23648721,37.4785438 9.1704803,37.3729938 9.14407754,37.25425 C9.11767478,37.1355062 9.14407754,37.0167625 9.19688306,36.9244062 C11.6391385,33.296124 15.7975736,30.9080546 20.4972652,30.9080546 C25.2101582,30.9080546 29.3553919,33.296124 31.7976473,36.9244062 C31.8768556,37.0167625 31.890057,37.1355062 31.8768556,37.25425 C31.8372515,37.3729938 31.784446,37.4785438 31.6788349,37.5313188 Z M27.4900367,19.0745771 C25.3646144,18.1114331 22.9883658,17.5704892 20.5065062,17.5704892 C12.1104278,17.5704892 5.1268973,23.6660033 3.76715506,31.6746117 C3.75395368,31.7537742 3.68794677,31.8329367 3.5955371,31.8461305 C3.51632882,31.8593242 3.43712053,31.8329367 3.38431501,31.7537742 C1.6549341,29.2337673 0.466809806,26.2915603 0.00476147113,23.1118657 C-0.00843990987,23.0195094 0.00476147113,22.9271531 0.0575669951,22.8479906 C4.11039096,15.762945 11.7539906,11 20.5065062,11 C24.902566,11 29.0345983,12.2006316 32.5461656,14.3116321 C32.6517767,14.3776009 32.7177836,14.4699572 32.7441864,14.5887009 C32.7705891,14.7074447 32.7441864,14.8261885 32.6649781,14.9317385 C31.3712427,16.6073452 29.7342715,18.0322706 27.8728768,19.0613834 C27.7540643,19.1273521 27.6088491,19.1273521 27.4900367,19.0745771 Z M40.9950495,23.1118657 C40.5330011,26.2915603 39.3580782,29.2337673 37.6286973,31.7537742 C37.5758918,31.8329367 37.4834821,31.8593242 37.3910725,31.8461305 C37.3250656,31.8329367 37.2590587,31.7537742 37.2326559,31.6746117 C36.9158228,29.8142924 36.3085592,28.0595232 35.4372681,26.4630791 C35.331657,26.2783665 35.3844626,26.040879 35.5560805,25.9221352 C37.1138435,24.7742786 38.5263912,23.4417095 39.7805224,21.9772029 C39.8597307,21.8584591 39.9785431,21.8188778 40.1369597,21.8188778 C40.2689735,21.8188778 40.387786,21.8980404 40.4537929,22.0299779 C40.6254108,22.293853 40.7838274,22.5709218 40.9554453,22.8479906 C40.9950495,22.9271531 41.0082509,23.0195094 40.9950495,23.1118657 Z" id="形状结合" fill="url(#linearGradient-2)"></path>
                    <path d="M26.2728694,0.020215077 C28.200271,0.574120131 30.0220616,1.40497771 31.6854356,2.47322318 C31.7778453,2.52597604 31.8306508,2.61829355 31.8702549,2.7501757 C31.8834563,2.86886964 31.8702549,2.97437537 31.804248,3.06669288 C29.3619925,6.70664038 25.2167589,9.0937074 20.5038659,9.0937074 C15.8041743,9.0937074 11.6457392,6.70664038 9.20348375,3.06669288 C9.15067823,2.97437537 9.12427547,2.86886964 9.15067823,2.7501757 C9.17708099,2.61829355 9.22988652,2.52597604 9.33549756,2.47322318 C10.9856702,1.40497771 12.8074608,0.574120131 14.7348624,0.020215077 C14.9064803,-0.0325377853 15.0780983,0.020215077 15.1837093,0.152097233 C16.4774447,1.62917738 18.3784435,2.56554068 20.5038659,2.56554068 C22.6292882,2.56554068 24.5302871,1.62917738 25.8240224,0.152097233 C25.9428349,0.020215077 26.1012514,-0.0325377853 26.2728694,0.020215077 Z M0.546018092,17.9746518 C0.38760152,17.7108875 0.215983567,17.4207467 0.0575669951,17.1569824 C0.00476147113,17.0646649 -0.00843990987,16.9723474 0.00476147113,16.8800299 C0.466809806,13.7016699 1.6549341,10.7738861 3.38431501,8.24174867 C3.43712053,8.17580759 3.51632882,8.13624295 3.5955371,8.16261938 C3.68794677,8.17580759 3.75395368,8.24174867 3.76715506,8.33406618 C4.0839882,10.1804164 4.70445311,11.934449 5.57574425,13.5434113 C5.6813553,13.7280464 5.62854978,13.952246 5.45693182,14.0841282 C3.89916887,15.2315029 2.47341972,16.5503245 1.2324899,18.0274046 C1.15328162,18.1329104 1.02126781,18.1856632 0.876052617,18.172475 C0.744038807,18.172475 0.625226378,18.0933457 0.546018092,17.9746518 Z M37.6286973,8.24174867 C39.3580782,10.7738861 40.5330011,13.7016699 40.9950495,16.8800299 C41.0082509,16.9723474 40.9950495,17.0646649 40.9554453,17.1569824 C36.88942,24.225866 29.2458204,29 20.5065062,29 C16.0972449,29 11.9916154,27.7866842 8.46684669,25.6897579 C8.34803426,25.6238168 8.28202736,25.5314993 8.2556246,25.3996171 C8.24242322,25.2809232 8.2556246,25.1622293 8.33483288,25.0699118 C9.62856822,23.3818202 11.2655395,21.9706811 13.1401356,20.9420003 C13.258948,20.8760592 13.4041632,20.8760592 13.5229756,20.9288121 C15.6615993,21.8915518 18.0114452,22.4190804 20.5065062,22.4190804 C28.9025845,22.4190804 35.886115,16.3261248 37.2326559,8.33406618 C37.2590587,8.24174867 37.3250656,8.17580759 37.4042738,8.16261938 C37.4834821,8.13624295 37.5758918,8.17580759 37.6286973,8.24174867 Z" id="形状结合" fill="url(#linearGradient-3)"></path>
                </g>
            </g>
        </g>
    </g>
</svg>